<mxfile host="app.diagrams.net" agent="Mozilla/5.0 (Windows NT 10.0; Win64; x64) AppleWebKit/537.36 (KHTML, like Gecko) Chrome/128.0.0.0 Safari/537.36" version="24.7.15">
  <diagram name="Página-1" id="naKC_NzfGfYMtDUA6RoJ">
    <mxGraphModel dx="1050" dy="522" grid="1" gridSize="10" guides="1" tooltips="1" connect="1" arrows="1" fold="1" page="1" pageScale="1" pageWidth="827" pageHeight="1169" math="0" shadow="0">
      <root>
        <mxCell id="0" />
        <mxCell id="1" parent="0" />
        <mxCell id="e1ZrGnT8H6AEOqCwfoAm-1" value="" style="rounded=0;whiteSpace=wrap;html=1;" vertex="1" parent="1">
          <mxGeometry x="20" y="20" width="790" height="1190" as="geometry" />
        </mxCell>
        <mxCell id="e1ZrGnT8H6AEOqCwfoAm-2" value="" style="rounded=0;whiteSpace=wrap;html=1;" vertex="1" parent="1">
          <mxGeometry x="20" y="20" width="790" height="60" as="geometry" />
        </mxCell>
        <mxCell id="e1ZrGnT8H6AEOqCwfoAm-8" value="" style="rounded=1;whiteSpace=wrap;html=1;rotation=90;" vertex="1" parent="1">
          <mxGeometry x="640" y="160" width="156" height="100" as="geometry" />
        </mxCell>
        <mxCell id="e1ZrGnT8H6AEOqCwfoAm-9" value="" style="rounded=1;whiteSpace=wrap;html=1;rotation=90;" vertex="1" parent="1">
          <mxGeometry x="510" y="160" width="156" height="100" as="geometry" />
        </mxCell>
        <mxCell id="e1ZrGnT8H6AEOqCwfoAm-10" value="" style="rounded=1;whiteSpace=wrap;html=1;rotation=90;" vertex="1" parent="1">
          <mxGeometry x="390" y="160" width="156" height="100" as="geometry" />
        </mxCell>
        <mxCell id="e1ZrGnT8H6AEOqCwfoAm-11" value="" style="rounded=1;whiteSpace=wrap;html=1;rotation=90;" vertex="1" parent="1">
          <mxGeometry x="270" y="160" width="156" height="100" as="geometry" />
        </mxCell>
        <mxCell id="e1ZrGnT8H6AEOqCwfoAm-12" value="" style="rounded=1;whiteSpace=wrap;html=1;rotation=90;" vertex="1" parent="1">
          <mxGeometry x="150" y="160" width="156" height="100" as="geometry" />
        </mxCell>
        <mxCell id="e1ZrGnT8H6AEOqCwfoAm-13" value="" style="rounded=1;whiteSpace=wrap;html=1;rotation=90;" vertex="1" parent="1">
          <mxGeometry x="30" y="160" width="156" height="100" as="geometry" />
        </mxCell>
        <mxCell id="e1ZrGnT8H6AEOqCwfoAm-16" value="" style="rounded=1;whiteSpace=wrap;html=1;rotation=90;" vertex="1" parent="1">
          <mxGeometry x="60" y="630" width="156" height="100" as="geometry" />
        </mxCell>
        <mxCell id="e1ZrGnT8H6AEOqCwfoAm-17" value="" style="rounded=1;whiteSpace=wrap;html=1;rotation=90;" vertex="1" parent="1">
          <mxGeometry x="234" y="630" width="156" height="100" as="geometry" />
        </mxCell>
        <mxCell id="e1ZrGnT8H6AEOqCwfoAm-18" value="" style="rounded=1;whiteSpace=wrap;html=1;rotation=90;" vertex="1" parent="1">
          <mxGeometry x="430" y="630" width="156" height="100" as="geometry" />
        </mxCell>
        <mxCell id="e1ZrGnT8H6AEOqCwfoAm-19" value="" style="rounded=1;whiteSpace=wrap;html=1;rotation=90;" vertex="1" parent="1">
          <mxGeometry x="630" y="630" width="156" height="100" as="geometry" />
        </mxCell>
        <mxCell id="e1ZrGnT8H6AEOqCwfoAm-20" value="" style="rounded=0;whiteSpace=wrap;html=1;" vertex="1" parent="1">
          <mxGeometry x="364" y="970" width="50" height="50" as="geometry" />
        </mxCell>
        <mxCell id="e1ZrGnT8H6AEOqCwfoAm-21" value="" style="rounded=0;whiteSpace=wrap;html=1;" vertex="1" parent="1">
          <mxGeometry x="460" y="970" width="50" height="50" as="geometry" />
        </mxCell>
        <mxCell id="e1ZrGnT8H6AEOqCwfoAm-22" value="E-MAIL:FABIOBOEKER@HOTMAIL.COM" style="text;html=1;align=center;verticalAlign=middle;whiteSpace=wrap;rounded=0;" vertex="1" parent="1">
          <mxGeometry x="260" y="1060" width="370" height="30" as="geometry" />
        </mxCell>
        <mxCell id="e1ZrGnT8H6AEOqCwfoAm-23" value="MINHA FAMÍLIA" style="text;html=1;align=center;verticalAlign=middle;whiteSpace=wrap;rounded=0;" vertex="1" parent="1">
          <mxGeometry x="240" y="555" width="370" height="30" as="geometry" />
        </mxCell>
        <mxCell id="e1ZrGnT8H6AEOqCwfoAm-24" value="FABIO BOEKER JUNIOR" style="text;html=1;align=center;verticalAlign=middle;whiteSpace=wrap;rounded=0;" vertex="1" parent="1">
          <mxGeometry x="240" y="90" width="370" height="30" as="geometry" />
        </mxCell>
        <mxCell id="e1ZrGnT8H6AEOqCwfoAm-25" value="DEVELOPED BY FABIO BOEKER JUNIOR" style="text;html=1;align=center;verticalAlign=middle;whiteSpace=wrap;rounded=0;" vertex="1" parent="1">
          <mxGeometry x="240" y="1160" width="370" height="30" as="geometry" />
        </mxCell>
        <mxCell id="e1ZrGnT8H6AEOqCwfoAm-26" value="SOBRE MIM" style="text;html=1;align=center;verticalAlign=middle;whiteSpace=wrap;rounded=0;" vertex="1" parent="1">
          <mxGeometry x="250" y="35" width="100" height="30" as="geometry" />
        </mxCell>
        <mxCell id="e1ZrGnT8H6AEOqCwfoAm-27" value="PROJETOS" style="text;html=1;align=center;verticalAlign=middle;whiteSpace=wrap;rounded=0;" vertex="1" parent="1">
          <mxGeometry x="395" y="35" width="60" height="30" as="geometry" />
        </mxCell>
        <mxCell id="e1ZrGnT8H6AEOqCwfoAm-28" value="CONTATO" style="text;html=1;align=center;verticalAlign=middle;whiteSpace=wrap;rounded=0;" vertex="1" parent="1">
          <mxGeometry x="526" y="35" width="60" height="30" as="geometry" />
        </mxCell>
        <mxCell id="e1ZrGnT8H6AEOqCwfoAm-29" value="&lt;span style=&quot;color: rgb(51, 51, 51); font-family: Roboto, sans-serif; font-size: medium; text-align: justify; background-color: rgb(241, 241, 254);&quot;&gt;Meu nome é Fabio Boeker Junior, tenho 24 anos de idade! Trabalho no ramo da construção civil, mais especificamente com venda de lajes e concreto na empresa União Pré-moldados, à qual eu e meu pai somos sócios! Temos trabalhado diariamente para crescer nosso negócio e torná-lo mais sólido e próspero. Além disso, sou estudante de Análise e Desenvolvimento de Sistemas na FAESA, atualmente estou no terceiro período! Uma das coisas que eu mais gosto de fazer é viajar e estar com a minha família, que é peça fundamental na minha vida!&lt;/span&gt;" style="text;html=1;align=center;verticalAlign=middle;whiteSpace=wrap;rounded=0;" vertex="1" parent="1">
          <mxGeometry x="110" y="330" width="630" height="240" as="geometry" />
        </mxCell>
        <mxCell id="e1ZrGnT8H6AEOqCwfoAm-30" value="SOBRE MIM" style="text;html=1;align=center;verticalAlign=middle;whiteSpace=wrap;rounded=0;" vertex="1" parent="1">
          <mxGeometry x="382.5" y="330" width="85" height="30" as="geometry" />
        </mxCell>
      </root>
    </mxGraphModel>
  </diagram>
</mxfile>
